<mxfile host="app.diagrams.net" modified="2022-09-24T14:42:37.357Z" agent="5.0 (Windows NT 10.0; Win64; x64) AppleWebKit/537.36 (KHTML, like Gecko) Chrome/105.0.0.0 Safari/537.36" etag="Y_7S_7IHDpMVg2IgWpvM" version="20.3.2" type="github">
  <diagram id="U3OGOd25ORocwlEM1zfc" name="第 1 页">
    <mxGraphModel dx="1151" dy="706" grid="1" gridSize="10" guides="1" tooltips="1" connect="1" arrows="1" fold="1" page="1" pageScale="1" pageWidth="827" pageHeight="1169" math="0" shadow="0">
      <root>
        <mxCell id="0" />
        <mxCell id="1" parent="0" />
        <mxCell id="gq95KbStqg9qNzzvhxyL-1" value="" style="whiteSpace=wrap;html=1;aspect=fixed;sketch=1;" vertex="1" parent="1">
          <mxGeometry x="400" y="440" width="340" height="340" as="geometry" />
        </mxCell>
        <mxCell id="gq95KbStqg9qNzzvhxyL-2" value="CPU&lt;br&gt;核心" style="rounded=1;whiteSpace=wrap;html=1;sketch=1;" vertex="1" parent="1">
          <mxGeometry x="430" y="495" width="120" height="60" as="geometry" />
        </mxCell>
        <mxCell id="gq95KbStqg9qNzzvhxyL-3" value="" style="rounded=1;whiteSpace=wrap;html=1;sketch=1;" vertex="1" parent="1">
          <mxGeometry x="600" y="490" width="120" height="200" as="geometry" />
        </mxCell>
        <mxCell id="gq95KbStqg9qNzzvhxyL-4" value="地址翻译" style="text;html=1;strokeColor=none;fillColor=none;align=center;verticalAlign=middle;whiteSpace=wrap;rounded=0;sketch=1;" vertex="1" parent="1">
          <mxGeometry x="630" y="510" width="60" height="30" as="geometry" />
        </mxCell>
        <mxCell id="gq95KbStqg9qNzzvhxyL-5" value="" style="endArrow=none;html=1;rounded=0;exitX=0.008;exitY=0.33;exitDx=0;exitDy=0;exitPerimeter=0;sketch=1;" edge="1" parent="1" source="gq95KbStqg9qNzzvhxyL-3">
          <mxGeometry width="50" height="50" relative="1" as="geometry">
            <mxPoint x="660" y="640" as="sourcePoint" />
            <mxPoint x="720" y="555" as="targetPoint" />
          </mxGeometry>
        </mxCell>
        <mxCell id="gq95KbStqg9qNzzvhxyL-6" value="MMU" style="text;html=1;strokeColor=none;fillColor=none;align=center;verticalAlign=middle;whiteSpace=wrap;rounded=0;sketch=1;" vertex="1" parent="1">
          <mxGeometry x="630" y="450" width="60" height="30" as="geometry" />
        </mxCell>
        <mxCell id="gq95KbStqg9qNzzvhxyL-7" value="TLB" style="rounded=1;whiteSpace=wrap;html=1;sketch=1;" vertex="1" parent="1">
          <mxGeometry x="610" y="610" width="100" height="50" as="geometry" />
        </mxCell>
        <mxCell id="gq95KbStqg9qNzzvhxyL-8" value="" style="endArrow=classic;html=1;rounded=0;sketch=1;entryX=0.25;entryY=0;entryDx=0;entryDy=0;endFill=1;" edge="1" parent="1" target="gq95KbStqg9qNzzvhxyL-7">
          <mxGeometry width="50" height="50" relative="1" as="geometry">
            <mxPoint x="635" y="560" as="sourcePoint" />
            <mxPoint x="660" y="570" as="targetPoint" />
          </mxGeometry>
        </mxCell>
        <mxCell id="gq95KbStqg9qNzzvhxyL-10" value="" style="endArrow=classic;html=1;rounded=0;sketch=1;endFill=1;exitX=0.701;exitY=-0.037;exitDx=0;exitDy=0;exitPerimeter=0;" edge="1" parent="1" source="gq95KbStqg9qNzzvhxyL-7">
          <mxGeometry width="50" height="50" relative="1" as="geometry">
            <mxPoint x="645" y="570" as="sourcePoint" />
            <mxPoint x="680" y="560" as="targetPoint" />
          </mxGeometry>
        </mxCell>
        <mxCell id="gq95KbStqg9qNzzvhxyL-11" value="" style="endArrow=classic;html=1;rounded=0;sketch=1;entryX=0;entryY=0.175;entryDx=0;entryDy=0;entryPerimeter=0;exitX=1;exitY=0.5;exitDx=0;exitDy=0;" edge="1" parent="1" source="gq95KbStqg9qNzzvhxyL-2" target="gq95KbStqg9qNzzvhxyL-3">
          <mxGeometry width="50" height="50" relative="1" as="geometry">
            <mxPoint x="370" y="640" as="sourcePoint" />
            <mxPoint x="420" y="590" as="targetPoint" />
          </mxGeometry>
        </mxCell>
        <mxCell id="gq95KbStqg9qNzzvhxyL-12" value="&lt;font style=&quot;font-size: 36px;&quot;&gt;CPU&lt;/font&gt;" style="text;html=1;strokeColor=none;fillColor=none;align=center;verticalAlign=middle;whiteSpace=wrap;rounded=0;sketch=1;" vertex="1" parent="1">
          <mxGeometry x="430" y="680" width="120" height="70" as="geometry" />
        </mxCell>
        <mxCell id="gq95KbStqg9qNzzvhxyL-13" value="" style="endArrow=none;html=1;rounded=0;sketch=1;fontSize=36;" edge="1" parent="1">
          <mxGeometry width="50" height="50" relative="1" as="geometry">
            <mxPoint x="890" y="810" as="sourcePoint" />
            <mxPoint x="890" y="390" as="targetPoint" />
          </mxGeometry>
        </mxCell>
        <mxCell id="gq95KbStqg9qNzzvhxyL-16" value="&lt;font style=&quot;font-size: 18px;&quot;&gt;总线&lt;/font&gt;" style="edgeLabel;html=1;align=center;verticalAlign=middle;resizable=0;points=[];fontSize=36;" vertex="1" connectable="0" parent="gq95KbStqg9qNzzvhxyL-13">
          <mxGeometry x="-0.5619" y="-1" relative="1" as="geometry">
            <mxPoint as="offset" />
          </mxGeometry>
        </mxCell>
        <mxCell id="gq95KbStqg9qNzzvhxyL-14" value="" style="endArrow=classic;html=1;rounded=0;sketch=1;fontSize=36;exitX=1.001;exitY=0.269;exitDx=0;exitDy=0;exitPerimeter=0;" edge="1" parent="1" source="gq95KbStqg9qNzzvhxyL-1">
          <mxGeometry width="50" height="50" relative="1" as="geometry">
            <mxPoint x="750" y="640" as="sourcePoint" />
            <mxPoint x="890" y="530" as="targetPoint" />
          </mxGeometry>
        </mxCell>
        <mxCell id="gq95KbStqg9qNzzvhxyL-15" value="" style="rounded=1;whiteSpace=wrap;html=1;sketch=1;fontSize=36;" vertex="1" parent="1">
          <mxGeometry x="1010" y="510" width="250" height="260" as="geometry" />
        </mxCell>
        <mxCell id="gq95KbStqg9qNzzvhxyL-17" value="" style="endArrow=none;html=1;rounded=0;sketch=1;fontSize=18;entryX=1.005;entryY=0.245;entryDx=0;entryDy=0;entryPerimeter=0;exitX=0;exitY=0.25;exitDx=0;exitDy=0;" edge="1" parent="1" source="gq95KbStqg9qNzzvhxyL-15" target="gq95KbStqg9qNzzvhxyL-15">
          <mxGeometry width="50" height="50" relative="1" as="geometry">
            <mxPoint x="1000" y="600" as="sourcePoint" />
            <mxPoint x="1050" y="550" as="targetPoint" />
          </mxGeometry>
        </mxCell>
        <mxCell id="gq95KbStqg9qNzzvhxyL-18" value="物理内存" style="text;html=1;strokeColor=none;fillColor=none;align=center;verticalAlign=middle;whiteSpace=wrap;rounded=0;sketch=1;fontSize=18;" vertex="1" parent="1">
          <mxGeometry x="1105" y="525" width="75" height="30" as="geometry" />
        </mxCell>
        <mxCell id="gq95KbStqg9qNzzvhxyL-19" value="" style="endArrow=none;html=1;rounded=0;sketch=1;fontSize=18;exitX=0.25;exitY=1;exitDx=0;exitDy=0;" edge="1" parent="1" source="gq95KbStqg9qNzzvhxyL-15">
          <mxGeometry width="50" height="50" relative="1" as="geometry">
            <mxPoint x="1020" y="585" as="sourcePoint" />
            <mxPoint x="1070" y="580" as="targetPoint" />
          </mxGeometry>
        </mxCell>
        <mxCell id="gq95KbStqg9qNzzvhxyL-20" value="控制器" style="text;html=1;strokeColor=none;fillColor=none;align=center;verticalAlign=middle;whiteSpace=wrap;rounded=0;sketch=1;fontSize=18;" vertex="1" parent="1">
          <mxGeometry x="1030" y="620" width="30" height="100" as="geometry" />
        </mxCell>
        <mxCell id="gq95KbStqg9qNzzvhxyL-21" value="&lt;font style=&quot;font-size: 13px;&quot;&gt;物理地址 #0&lt;/font&gt;" style="text;html=1;strokeColor=none;fillColor=none;align=center;verticalAlign=middle;whiteSpace=wrap;rounded=0;sketch=1;fontSize=18;" vertex="1" parent="1">
          <mxGeometry x="1110" y="615" width="110" height="30" as="geometry" />
        </mxCell>
        <mxCell id="gq95KbStqg9qNzzvhxyL-22" value="&lt;font style=&quot;font-size: 13px;&quot;&gt;物理地址 #1&lt;/font&gt;" style="text;html=1;strokeColor=none;fillColor=none;align=center;verticalAlign=middle;whiteSpace=wrap;rounded=0;sketch=1;fontSize=18;" vertex="1" parent="1">
          <mxGeometry x="1110" y="655" width="110" height="30" as="geometry" />
        </mxCell>
        <mxCell id="gq95KbStqg9qNzzvhxyL-23" value="&lt;font style=&quot;font-size: 13px;&quot;&gt;物理地址 #2&lt;/font&gt;" style="text;html=1;strokeColor=none;fillColor=none;align=center;verticalAlign=middle;whiteSpace=wrap;rounded=0;sketch=1;fontSize=18;" vertex="1" parent="1">
          <mxGeometry x="1110" y="695" width="110" height="30" as="geometry" />
        </mxCell>
        <mxCell id="gq95KbStqg9qNzzvhxyL-24" value="" style="endArrow=classic;html=1;rounded=0;sketch=1;fontSize=36;entryX=0.004;entryY=0.689;entryDx=0;entryDy=0;entryPerimeter=0;" edge="1" parent="1" target="gq95KbStqg9qNzzvhxyL-15">
          <mxGeometry width="50" height="50" relative="1" as="geometry">
            <mxPoint x="890" y="690" as="sourcePoint" />
            <mxPoint x="900" y="540" as="targetPoint" />
          </mxGeometry>
        </mxCell>
      </root>
    </mxGraphModel>
  </diagram>
</mxfile>
